<svg width="120" height="120" viewBox="0 0 120 120" fill="none" xmlns="http://www.w3.org/2000/svg">
<path d="M60 0C26.915 0 0 26.915 0 60C0 93.085 26.915 120 60 120C93.085 120 120 93.085 120 60C120 26.915 93.085 0 60 0ZM91 52.56L68.87 74.285C64.955 78.125 59.915 80.04 54.87 80.04C49.88 80.04 44.89 78.16 40.99 74.395L31.495 65.06C29.525 63.125 29.5 59.96 31.435 57.99C33.365 56.015 36.54 55.99 38.505 57.93L47.97 67.235C51.85 70.985 57.975 70.965 61.875 67.145L84 45.425C85.965 43.485 89.12 43.52 91.07 45.49C93.005 47.46 92.975 50.625 91 52.56Z" fill="url(#paint0_linear_3991_25143)"/>
<defs>
<linearGradient id="paint0_linear_3991_25143" x1="0" y1="60" x2="120" y2="60" gradientUnits="userSpaceOnUse">
<stop stop-color="#AB50F6"/>
<stop offset="1" stop-color="#FB7D6C"/>
</linearGradient>
</defs>
</svg>
