<svg width="25" height="25" viewBox="0 0 25 25" fill="none" xmlns="http://www.w3.org/2000/svg">
<path d="M19.52 2.33047C18.3727 2.17623 16.8604 2.17446 14.7318 2.17446C14.2694 2.17446 13.8945 1.79961 13.8945 1.33723C13.8945 0.874845 14.2694 0.500001 14.7318 0.500001H14.7947C16.8464 0.499978 18.4713 0.499967 19.743 0.670951C21.0519 0.846903 22.1112 1.21765 22.9467 2.05305C23.7107 2.81709 24.128 3.54377 24.3238 4.66604C24.4999 5.67487 24.4999 7.03541 24.4997 9.04385V9.15136C24.4997 9.61376 24.1249 9.98859 23.6625 9.98859C23.2001 9.98859 22.8252 9.61376 22.8252 9.15136C22.8252 7.00908 22.822 5.80089 22.6742 4.95388C22.5431 4.2024 22.3064 3.78087 21.7626 3.23707C21.2902 2.76464 20.643 2.48147 19.52 2.33047Z" fill="url(#paint0_linear_3991_25167)" stroke="url(#paint1_linear_3991_25167)"/>
<path d="M2.17452 15.8493C2.17452 15.3869 1.79967 15.0121 1.33727 15.0121C0.874857 15.0121 0.500013 15.3869 0.500013 15.8493L0.500002 15.9568C0.499946 17.9653 0.499913 19.3258 0.675959 20.3346C0.871787 21.4568 1.28904 22.1836 2.05311 22.9477C2.88853 23.783 3.94788 24.1537 5.2567 24.3298C6.52845 24.5007 8.15343 24.5007 10.205 24.5007H10.268C10.7304 24.5007 11.1052 24.1258 11.1052 23.6634C11.1052 23.2011 10.7304 22.8262 10.268 22.8262C8.13931 22.8262 6.62705 22.8244 5.47982 22.6702C4.35668 22.5192 3.70961 22.236 3.23716 21.7636C2.69335 21.2199 2.45666 20.7982 2.32554 20.0468C2.17774 19.1998 2.17452 17.9916 2.17452 15.8493Z" fill="url(#paint2_linear_3991_25167)" stroke="url(#paint3_linear_3991_25167)"/>
<path d="M24.4997 15.8493C24.4997 15.3869 24.1249 15.0121 23.6625 15.0121C23.2001 15.0121 22.8252 15.3869 22.8252 15.8493C22.8252 17.9916 22.822 19.1998 22.6742 20.0468C22.5431 20.7982 22.3064 21.2199 21.7626 21.7636C21.2902 22.236 20.643 22.5192 19.52 22.6702C18.3727 22.8244 16.8604 22.8262 14.7318 22.8262C14.2694 22.8262 13.8945 23.2011 13.8945 23.6634C13.8945 24.1258 14.2694 24.5007 14.7318 24.5007H14.7947C16.8464 24.5007 18.4713 24.5007 19.743 24.3298C21.0519 24.1537 22.1112 23.783 22.9467 22.9477C23.7107 22.1836 24.128 21.4568 24.3238 20.3346C24.4999 19.3258 24.4999 17.9653 24.4997 15.9568V15.8493Z" fill="url(#paint4_linear_3991_25167)" stroke="url(#paint5_linear_3991_25167)"/>
<path d="M10.268 0.500001H10.205C8.15344 0.499978 6.52844 0.499967 5.2567 0.670951C3.94788 0.846903 2.88853 1.21765 2.05311 2.05305C1.28904 2.81709 0.871787 3.54377 0.675959 4.66604C0.499913 5.67485 0.499946 7.03538 0.500002 9.0438L0.500013 9.15136C0.500013 9.61376 0.874857 9.98859 1.33727 9.98859C1.79967 9.98859 2.17452 9.61376 2.17452 9.15136C2.17452 7.00908 2.17774 5.80089 2.32554 4.95388C2.45666 4.2024 2.69335 3.78087 3.23716 3.23707C3.70961 2.76464 4.35668 2.48147 5.47982 2.33047C6.62705 2.17623 8.13932 2.17446 10.268 2.17446C10.7304 2.17446 11.1052 1.79961 11.1052 1.33723C11.1052 0.874845 10.7304 0.500001 10.268 0.500001Z" fill="url(#paint6_linear_3991_25167)" stroke="url(#paint7_linear_3991_25167)"/>
<path fill-rule="evenodd" clip-rule="evenodd" d="M12.4996 9.43066C10.8041 9.43066 9.42969 10.8051 9.42969 12.5005C9.42969 14.1959 10.8041 15.5703 12.4996 15.5703C14.1951 15.5703 15.5695 14.1959 15.5695 12.5005C15.5695 10.8051 14.1951 9.43066 12.4996 9.43066ZM11.1042 12.5005C11.1042 11.7298 11.7289 11.1051 12.4996 11.1051C13.2703 11.1051 13.895 11.7298 13.895 12.5005C13.895 13.2712 13.2703 13.8959 12.4996 13.8959C11.7289 13.8959 11.1042 13.2712 11.1042 12.5005Z" fill="url(#paint8_linear_3991_25167)" stroke="url(#paint9_linear_3991_25167)"/>
<path fill-rule="evenodd" clip-rule="evenodd" d="M5.04702 9.65414C6.46473 8.0097 8.90061 6.08142 12.4993 6.08142C16.0979 6.08142 18.5339 8.0097 19.9515 9.65414L19.9876 9.69591C20.2901 10.0466 20.6012 10.4071 20.815 10.8392C21.054 11.3222 21.1509 11.8409 21.1509 12.5002C21.1509 13.1595 21.054 13.6781 20.815 14.1611C20.6012 14.5932 20.2901 14.9538 19.9876 15.3044L19.9515 15.3462C18.5339 16.9906 16.0979 18.9189 12.4993 18.9189C8.90061 18.9189 6.46473 16.9906 5.04702 15.3462L5.01099 15.3044C4.70845 14.9538 4.39733 14.5932 4.18355 14.1611C3.9445 13.6781 3.84766 13.1595 3.84766 12.5002C3.84766 11.8409 3.9445 11.3222 4.18355 10.8392C4.39734 10.4071 4.70844 10.0466 5.01098 9.69591L5.04702 9.65414ZM12.4993 7.75588C9.56218 7.75588 7.54989 9.31543 6.31529 10.7475C5.9648 11.154 5.79418 11.3599 5.68439 11.5818C5.59134 11.7698 5.52216 12.0157 5.52216 12.5002C5.52216 12.9847 5.59134 13.2306 5.68439 13.4186C5.79418 13.6405 5.9648 13.8463 6.31529 14.2529C7.54989 15.6849 9.56218 17.2445 12.4993 17.2445C15.4364 17.2445 17.4487 15.6849 18.6832 14.2529C19.0338 13.8463 19.2043 13.6405 19.3142 13.4186C19.4072 13.2306 19.4764 12.9847 19.4764 12.5002C19.4764 12.0157 19.4072 11.7698 19.3142 11.5818C19.2043 11.3599 19.0338 11.154 18.6832 10.7475C17.4487 9.31543 15.4364 7.75588 12.4993 7.75588Z" fill="url(#paint10_linear_3991_25167)" stroke="url(#paint11_linear_3991_25167)"/>
<defs>
<linearGradient id="paint0_linear_3991_25167" x1="13.8945" y1="5.2443" x2="24.4998" y2="5.2443" gradientUnits="userSpaceOnUse">
<stop stop-color="#AB50F6"/>
<stop offset="1" stop-color="#FB7D6C"/>
</linearGradient>
<linearGradient id="paint1_linear_3991_25167" x1="13.8945" y1="5.2443" x2="24.4998" y2="5.2443" gradientUnits="userSpaceOnUse">
<stop stop-color="#AB50F6"/>
<stop offset="1" stop-color="#FB7D6C"/>
</linearGradient>
<linearGradient id="paint2_linear_3991_25167" x1="0.5" y1="19.7564" x2="11.1052" y2="19.7564" gradientUnits="userSpaceOnUse">
<stop stop-color="#AB50F6"/>
<stop offset="1" stop-color="#FB7D6C"/>
</linearGradient>
<linearGradient id="paint3_linear_3991_25167" x1="0.5" y1="19.7564" x2="11.1052" y2="19.7564" gradientUnits="userSpaceOnUse">
<stop stop-color="#AB50F6"/>
<stop offset="1" stop-color="#FB7D6C"/>
</linearGradient>
<linearGradient id="paint4_linear_3991_25167" x1="13.8945" y1="19.7564" x2="24.4998" y2="19.7564" gradientUnits="userSpaceOnUse">
<stop stop-color="#AB50F6"/>
<stop offset="1" stop-color="#FB7D6C"/>
</linearGradient>
<linearGradient id="paint5_linear_3991_25167" x1="13.8945" y1="19.7564" x2="24.4998" y2="19.7564" gradientUnits="userSpaceOnUse">
<stop stop-color="#AB50F6"/>
<stop offset="1" stop-color="#FB7D6C"/>
</linearGradient>
<linearGradient id="paint6_linear_3991_25167" x1="0.5" y1="5.2443" x2="11.1052" y2="5.2443" gradientUnits="userSpaceOnUse">
<stop stop-color="#AB50F6"/>
<stop offset="1" stop-color="#FB7D6C"/>
</linearGradient>
<linearGradient id="paint7_linear_3991_25167" x1="0.5" y1="5.2443" x2="11.1052" y2="5.2443" gradientUnits="userSpaceOnUse">
<stop stop-color="#AB50F6"/>
<stop offset="1" stop-color="#FB7D6C"/>
</linearGradient>
<linearGradient id="paint8_linear_3991_25167" x1="9.42969" y1="12.5005" x2="15.5695" y2="12.5005" gradientUnits="userSpaceOnUse">
<stop stop-color="#AB50F6"/>
<stop offset="1" stop-color="#FB7D6C"/>
</linearGradient>
<linearGradient id="paint9_linear_3991_25167" x1="9.42969" y1="12.5005" x2="15.5695" y2="12.5005" gradientUnits="userSpaceOnUse">
<stop stop-color="#AB50F6"/>
<stop offset="1" stop-color="#FB7D6C"/>
</linearGradient>
<linearGradient id="paint10_linear_3991_25167" x1="3.84766" y1="12.5002" x2="21.1509" y2="12.5002" gradientUnits="userSpaceOnUse">
<stop stop-color="#AB50F6"/>
<stop offset="1" stop-color="#FB7D6C"/>
</linearGradient>
<linearGradient id="paint11_linear_3991_25167" x1="3.84766" y1="12.5002" x2="21.1509" y2="12.5002" gradientUnits="userSpaceOnUse">
<stop stop-color="#AB50F6"/>
<stop offset="1" stop-color="#FB7D6C"/>
</linearGradient>
</defs>
</svg>
